<?xml version="1.0" encoding="UTF-8"?>
<svg id="Layer_1" xmlns="http://www.w3.org/2000/svg" version="1.1" viewBox="0 0 386.29 524.37">
  <!-- Generator: Adobe Illustrator 30.5.0, SVG Export Plug-In . SVG Version: 2.1.4 Build 167)  -->
  <path d="M73.14,178.27c-21.81,3.84-43.55,8.08-65.2,12.71-3.43.73-6.6-.99-7.69-4.37-1-3.08,1.16-7,4.37-7.69,6.14-1.31,12.29-2.6,18.44-3.85,21.7-4.41,43.48-8.42,65.33-12.04,3.47-.57,6.56.87,7.69,4.37.96,2.98-1.13,7.15-4.37,7.69-6.2,1.03-12.39,2.08-18.57,3.17h0ZM170.16,103.12c3.39-.15,6.25-2.75,6.25-6.25V6.26c0-3.27-2.87-6.4-6.25-6.25-3.39.15-6.25,2.75-6.25,6.25v90.61c0,3.27,2.87,6.4,6.25,6.25ZM219.57,123.47c2.96,1.56,6.84.8,8.55-2.24,6.1-10.83,12.59-21.44,19.48-31.79,3.48-5.24,7.07-10.41,10.75-15.52,1.79-2.49,3.61-4.96,5.45-7.42.92-1.23,1.85-2.45,2.78-3.67.42-.55.84-1.09,1.26-1.64h.01c.28-.37.56-.74.85-1.1,4.34-5.57,8.8-11.04,13.37-16.42,2.11-2.49,2.63-6.43,0-8.84-2.33-2.14-6.58-2.66-8.84,0-16.54,19.47-31.67,40.15-45.13,61.87-3.72,6-7.31,12.08-10.77,18.23-1.6,2.85-.77,6.96,2.24,8.55h0ZM107.11,217.84c-16.66,11.65-32.62,24.3-47.73,37.9-2.44,2.19-2.4,6.64,0,8.84,2.6,2.39,6.24,2.34,8.84,0,7.3-6.57,14.79-12.92,22.48-19.03.92-.73,1.85-1.46,2.77-2.19.49-.39.99-.77,1.49-1.16.16-.13.33-.25.49-.38.04-.03.06-.04.11-.08,1.93-1.48,3.87-2.96,5.82-4.41,3.97-2.96,7.98-5.85,12.04-8.69,2.67-1.87,4.17-5.55,2.24-8.55-1.71-2.66-5.69-4.25-8.55-2.24h0ZM385.6,365.05c-1.22,3.25-3.75,5.69-7.15,6.56-2.5.64-5.13.44-7.68.39-22.79-.47-45.59-.32-68.38.46-2.82.1-5.64.2-8.45.32l-4.23.18h-.13c.89,2.52,1.78,5.04,2.7,7.55,3.46,9.49,7.15,18.89,11,28.23.98,2.37,1.97,4.74,2.96,7.1.06.14.1.24.14.32.04.09.08.19.14.34.15.36.3.72.46,1.07.45,1.07.91,2.14,1.36,3.21,1.81,4.25,3.64,8.49,5.46,12.73,3.94,9.16,7.87,18.33,11.64,27.56,1.9,4.66,3.77,9.34,5.58,14.04,1.81,4.68,3.79,9.37,5.27,14.16,1.2,3.86,2.05,8.23,1.96,12.28-.09,4.38-2.36,8.22-5.63,11.04-5.98,5.13-13.59,7.75-20.93,10.27-4.99,1.72-9.7,2.26-14.65.08-3.28-1.44-5.77-3.96-7.8-6.85-5.79-8.26-10.93-17.07-15.88-25.85-4.81-8.52-9.3-17.22-13.51-26.05-8.72-18.3-16.26-37.15-23.23-56.18-.88-2.41-1.75-4.81-2.62-7.23-.22-.62-.44-1.24-.66-1.86-3.2,3.01-6.16,6.28-9.12,9.52-8.93,9.78-17.61,19.79-26.54,29.58-7.83,8.58-15.7,17.53-24.8,24.8-2.33,1.86-4.62,3.69-7.42,4.77-4.83,1.86-10.36.48-14.08-3.02-4.14-3.9-4.27-9.34-4.22-14.64.04-5.21.39-10.41.72-15.6.67-10.74.63-21.48.72-32.24.09-11.37.19-22.74.28-34.1.38-45.92.77-91.84,1.15-137.76.09-10.75.18-21.49.5-32.23.17-5.6.4-11.2.72-16.8.18-3.03.38-6.06.62-9.08.2-2.5.17-5.24.93-7.63,1.51-4.75,5.39-8.65,10.28-9.84,4.86-1.18,9.12.31,13.15,2.97,14.23,9.39,27.16,21.04,39.65,32.6,31.64,29.29,62.9,59.05,93.84,89.06,15.68,15.21,31.23,30.56,46.56,46.12,7.8,7.91,15.54,15.88,23.23,23.91,1.91,2,4.21,3.97,5.47,6.48,1.44,2.87,1.77,6.22.64,9.25h-.02ZM167.24,166.72h-.05.05ZM164.71,168.11c.02-.06.04-.11.06-.16-.04.08-.07.14-.06.16ZM302.59,511.83c-.11-.05-.22-.1-.33-.15,0,.05.15.1.33.15ZM288.59,370.24c0-.25-.01-.55-.04-.52-.06.05-.03.25.04.52ZM371.47,359.52h.42c-3.34-3.38-6.55-6.9-9.85-10.31-3.74-3.86-7.49-7.71-11.26-11.55-7.56-7.7-15.17-15.35-22.83-22.96-15.05-14.95-30.27-29.73-45.59-44.41-15.38-14.73-30.85-29.36-46.35-43.96-13.78-12.98-27.37-26.22-41.67-38.64-3.35-2.91-6.73-5.77-10.16-8.57-1.67-1.36-3.35-2.69-5.04-4.03-.09-.07-.17-.13-.23-.18-.05-.04-.09-.07-.15-.12-.41-.31-.81-.62-1.22-.93-.66-.5-1.33-1-1.99-1.49-1.56-1.15-3.13-2.27-4.74-3.36-.64-.44-1.29-.86-1.95-1.28-.34-.22-.68-.44-1.02-.64-.14-.09-.3-.16-.44-.24-.16-.05-.33-.1-.49-.14h-.51c-.3.1-.46.14-.55.15-.1.05-.2.11-.29.17-.07.07-.18.16-.34.29-.04.03-.07.05-.1.07-.05.08-.17.26-.27.43-.07.23-.13.47-.18.71,0,.04,0,.07,0,.11-.02.23-.04.46-.06.7-.12,1.39-.23,2.79-.34,4.19-.19,2.56-.36,5.12-.51,7.68-.31,5.36-.54,10.73-.7,16.1-.34,10.98-.43,21.96-.52,32.94-.09,10.85-.18,21.71-.27,32.56-.37,44.54-.74,89.08-1.11,133.63-.09,10.73.11,21.5-.43,32.22-.26,5.15-.67,10.3-.89,15.46-.11,2.59-.18,5.18-.16,7.78,0,.88-.09,1.93,0,2.87.05.1.13.32.16.47v.03s.04.05.06.09c.03.04.05.08.07.11.08.09.16.18.25.26.04.02.07.04.12.06.04.03.07.04.11.07.16.04.29.07.38.09.09,0,.17-.01.24-.02.07-.02.16-.03.25-.05h.05s.09-.07.15-.11c.16-.11.33-.2.5-.31.7-.44,1.36-.94,2.03-1.42.08-.06.16-.13.24-.19.35-.28.69-.57,1.04-.85,4.07-3.42,7.85-7.19,11.56-10.99,9.3-9.53,18.12-19.53,26.97-29.47,6.81-7.65,13.44-15.66,20.93-22.65,2.56-2.39,5.26-4.28,8.87-4.66,3.12-.33,6.32.89,8.35,3.3,1.62,1.93,2.4,4.18,3.23,6.53,3.32,9.34,6.75,18.64,10.37,27.86,1.8,4.59,3.64,9.15,5.55,13.7,0,.02.4.96.45,1.08.19.46.39.91.58,1.37.48,1.12.96,2.24,1.45,3.36.89,2.05,1.79,4.09,2.71,6.12,3.92,8.69,8.09,17.27,12.54,25.7,4.56,8.61,9.41,17.07,14.58,25.33,1.47,2.35,2.96,4.68,4.48,7,.59.9,1.18,1.8,1.78,2.7.12.18.25.37.39.56.43.41.9.85,1.3,1.29.29.18.57.37.88.54.14.08.29.14.43.21.34.09.78.16.85.19h.02c.05,0,.11,0,.18-.01.33-.01.67-.02,1-.02-1.5.03.65-.17,1.05-.29.41-.12.82-.28,1.22-.42.7-.24,1.41-.49,2.11-.73,1.47-.51,2.94-1.02,4.39-1.56.95-.35,1.89-.73,2.83-1.11.4-.18.8-.35,1.2-.54,1.65-.76,3.26-1.6,4.79-2.58.37-.23.72-.49,1.08-.72.04-.03.07-.04.1-.06.59-.51,1.17-1.02,1.7-1.6,0,.03-.01.05-.01.08,0-.03.04-.09.09-.17.18-.2.26-.33.28-.39.01-.02.03-.04.04-.05.03-.04.05-.1.08-.15.02-.39.09-.82.08-1.02-.01-.47-.05-.93-.09-1.4,0-.02-.04-.34-.07-.61-.04-.29-.1-.68-.1-.7-.31-1.81-.7-3.62-1.25-5.38-1.42-4.59-3.31-9.07-5.04-13.55-1.82-4.71-3.68-9.4-5.59-14.08-.91-2.24-1.84-4.48-2.77-6.72-.46-1.1-.92-2.2-1.38-3.3-.1-.23-.19-.46-.29-.68,0,0-.43-1.03-.46-1.09-1.81-4.28-3.65-8.56-5.49-12.83-7.6-17.67-15.17-35.35-21.86-53.39-.94-2.54-1.87-5.08-2.77-7.63-.78-2.19-1.81-4.44-2.2-6.75-.57-3.39.02-6.75,2.63-9.2,2.62-2.45,5.86-2.72,9.26-2.88,11.03-.5,22.07-.86,33.12-1.07,11.04-.21,22.09-.27,33.13-.19,5.64.04,11.28.12,16.92.24h-.02ZM373.89,361.53c.44.44.21.24,0,0ZM325.2,502.4h.01s.04-.06.06-.08c.09-.13.21-.3.28-.39.05-.17-.31.09-.36.48h.01ZM120.74,111.08c-24.11-15.81-47.72-32.39-70.76-49.71-3.2-2.41-6.39-4.83-9.57-7.26-.89-.68-1.78-1.36-2.67-2.05-.25-.2-.51-.39-.76-.59-.17-.13-.35-.27-.52-.4-.04-.03-.06-.05-.12-.09-1.65-1.28-3.29-2.55-4.93-3.83-1.36-1.07-2.61-1.83-4.42-1.83-1.53,0-3.36.68-4.42,1.83-2.06,2.24-2.75,6.69,0,8.84,23.27,18.17,47.09,35.63,71.49,52.27,6.75,4.6,13.54,9.14,20.37,13.62,2.74,1.8,7.03.64,8.55-2.24,1.65-3.12.68-6.63-2.24-8.55h0Z"/>
</svg>