<?xml version="1.0" encoding="UTF-8"?>
<svg id="Layer_1" xmlns="http://www.w3.org/2000/svg" version="1.1" viewBox="0 0 88 58">
  <!-- Generator: Adobe Illustrator 30.5.0, SVG Export Plug-In . SVG Version: 2.1.4 Build 167)  -->
  <path d="M8,0C3.6,0,0,3.6,0,8v42c0,4.4,3.6,8,8,8h72c4.4,0,8-3.6,8-8V8c0-4.4-3.6-8-8-8H8ZM8,4h72c.34,0,.67.04.99.12l-34.12,32.69c-1.66,1.59-4,1.59-5.66,0L7.02,4.12c.31-.07.64-.12.98-.12h0ZM4.14,6.91l22.55,21.57L4.13,51.04c-.09-.33-.13-.68-.13-1.04V8c0-.38.05-.75.14-1.09h0ZM83.86,6.91c.09.34.14.71.14,1.09v42c0,.36-.05.71-.13,1.04l-22.54-22.55,22.53-21.59ZM29.59,31.25l8.84,8.46c3.12,2.99,8.07,2.99,11.19,0l8.8-8.44,22.61,22.61c-.33.09-.68.13-1.04.13H8c-.36,0-.71-.05-1.04-.13l22.63-22.62Z"/>
</svg>