<?xml version="1.0" encoding="UTF-8"?>
<svg id="Layer_1" xmlns="http://www.w3.org/2000/svg" version="1.1" viewBox="0 0 74.5 74.7">
  <!-- Generator: Adobe Illustrator 30.5.0, SVG Export Plug-In . SVG Version: 2.1.4 Build 167)  -->
  <path d="M50.8,38.4c-1.8-1.8-4.7-1.8-6.5,0l-2.7,2.8,1.4,1.4-1.4-1.4c-5.4-2.4-8.2-7.3-9.2-9.3l2.7-2.7c1.8-1.8,1.8-4.7,0-6.5l-5-5c-.9-.9-2-1.3-3.2-1.3s-2.4.5-3.2,1.3l-2,2c-1.6,1.7-2.7,3.8-2.8,6.1-.3,3.9.2,11.6,7,19l1.4,1.5c6.9,7.2,14.2,8.6,18.8,8.6.6,0,1.2,0,1.7-.1,2.3-.2,4.5-1.2,6.2-2.8l2-2c.9-.9,1.3-2,1.3-3.2s-.5-2.4-1.3-3.2l-5.2-5.2ZM53,47.1l-2,2c-1,1-2.3,1.6-3.6,1.7-3.6.3-10.7-.3-17.3-7.3l-1.4-1.4c-5.7-6.3-6.2-12.7-5.9-15.9.1-1.3.7-2.6,1.7-3.6l2-2c.1-.1.3-.2.4-.2s.3,0,.4.2l5,5c.2.2.2.6,0,.8l-2.7,2.7c-1.2,1.2-1.5,3.1-.8,4.6,1.5,3,4.8,8.4,11.2,11.2,1.5.7,3.3.3,4.5-.8l2.8-2.8c.2-.2.6-.2.8,0l5,5c.1.1.2.3.2.4,0,.1-.09.2-.3.4h0Z"/>
  <path d="M37.6,0C27.7,0,18.5,3.8,11.5,10.8-.5,22.8-2.8,41.1,5.8,55.7L0,74.7l18-6.5c14.5,9.1,33.6,7,45.7-5.2,7-7,10.8-16.2,10.8-26.1s-3.8-19.1-10.8-26.1C56.7,3.8,47.5,0,37.6,0h0ZM60.9,60.2c-11.1,11.1-28.5,12.8-41.5,4.1l-.8-.6-12.4,4.5,4-13.1-.5-.8C1.51,41.2,3.4,24.5,14.31,13.6c6.2-6.2,14.5-9.6,23.3-9.6s17.1,3.4,23.3,9.6c6.2,6.2,9.6,14.5,9.6,23.3,0,8.8-3.41,17.1-9.61,23.3h0Z"/>
</svg>