<?xml version="1.0" encoding="UTF-8"?>
<svg id="Layer_1" xmlns="http://www.w3.org/2000/svg" version="1.1" xmlns:x="http://ns.adobe.com/Extensibility/1.0/" viewBox="0 0 66.9 66.44">
  <!-- Generator: Adobe Illustrator 30.5.0, SVG Export Plug-In . SVG Version: 2.1.4 Build 167)  -->
  <path d="M65.38,66.44c-.3,0-.5-.1-.7-.2l-35.6-20-27.6.6c-.6,0-1.2-.4-1.4-1s0-1.3.4-1.7L52.48.34c.4-.3,1-.4,1.5-.3.5.2.9.6,1,1.1l11.9,63.5c.1.6-.1,1.2-.6,1.5-.3.2-.6.3-.9.3ZM29.48,43.34c.3,0,.5.1.7.2l33.1,18.6L52.48,4.24,5.68,43.74l23.8-.4h0Z"/>
  <path d="M29.48,66.44h-.4c-.7-.2-1.1-.8-1.1-1.5v-20.1c0-.3.1-.5.2-.7L52.18.84c.4-.7,1.3-1,2-.6s1,1.3.6,2l-23.9,43v13.7l5.4-10.2c.4-.7,1.3-1,2-.6s1,1.3.6,2l-8.2,15.5c-.2.5-.7.8-1.2.8Z"/>
</svg>