<?xml version="1.0" encoding="UTF-8"?>
<svg id="Layer_1" data-name="Layer 1" xmlns="http://www.w3.org/2000/svg" viewBox="0 0 364.97 364.81">
  <defs>
    <style>
      .cls-1 {
        fill: #010101;
      }
    </style>
  </defs>
  <g id="Layer_1-2" data-name="Layer 1-2">
    <path id="path1397" class="cls-1" d="M291.04,327.89c-3.75-1.81-7.01-2.95-9.8-4.8-6.65-4.39-13.14-9.04-19.58-13.74-4.06-2.96-8.21-3.45-12.8-1.49-8.22,3.51-16.46,6.97-24.71,10.38-4.18,1.73-6.55,4.71-7.3,9.2-1.43,8.54-2.96,17.06-4.56,25.56-1.44,7.69-5.4,11.41-13.21,11.6-11,.27-22.02.3-33.02-.03-8.2-.25-11.9-3.85-13.36-11.87-1.5-8.25-2.95-16.5-4.34-24.77-.8-4.74-3.23-8.01-7.74-9.85-8.02-3.27-15.98-6.69-23.98-10-3.99-1.65-7.74-1.22-11.31,1.32-6.49,4.63-13.09,9.12-19.6,13.73-9.12,6.45-13.76,6.21-21.73-1.54-6.61-6.42-13.13-12.94-19.58-19.52-7.43-7.58-7.78-12.36-1.73-21.07,4.55-6.55,9.08-13.11,13.76-19.58,2.7-3.74,2.91-7.62,1.22-11.7-3.48-8.37-7.01-16.72-10.57-25.06-1.62-3.81-4.43-6.12-8.61-6.86-8.79-1.55-17.59-3.08-26.33-4.9-8.36-1.74-11.69-5.45-11.93-13.86-.31-10.72-.28-21.47-.04-32.19.18-7.92,3.63-11.88,11.39-13.41,8.36-1.64,16.78-3.08,25.22-4.23,5.27-.72,8.3-3.31,10.11-8.27,2.91-7.99,6.1-15.9,9.57-23.66,2.13-4.76,2.13-8.65-1.25-12.95-5.18-6.58-9.93-13.52-14.62-20.47-5.26-7.78-4.94-12.44,1.48-19.14,7.04-7.35,14.25-14.55,21.59-21.59,6.64-6.37,11.17-6.74,18.74-1.56,7.37,5.05,14.57,10.36,21.73,15.71,3.12,2.33,6.1,2.56,9.61,1.03,8.81-3.86,17.65-7.66,26.59-11.22,4.05-1.61,6.03-4.21,6.64-8.5,1.2-8.43,2.65-16.83,4.2-25.21,1.71-9.26,5.2-12.72,14.62-13.1,10.71-.44,21.46-.31,32.17.04,7.86.26,11.5,3.51,13.07,11.25,1.71,8.48,3.14,17.04,4.33,25.61.69,4.95,3,7.76,7.74,9.49,8.77,3.2,17.39,6.82,25.96,10.54,4.24,1.84,7.78,1.59,11.52-1.22,6.71-5.03,13.57-9.86,20.52-14.57,7.92-5.36,13.15-4.89,19.86,1.71,6.77,6.65,13.51,13.33,20.02,20.23,7.79,8.26,8.03,12.05,1.67,21.4-4.41,6.48-8.86,12.95-13.66,19.13-3.1,3.99-3.39,7.63-1.34,12.18,3.84,8.51,7.35,17.18,10.73,25.89,1.48,3.8,3.95,5.65,7.87,6.25,8.7,1.33,17.39,2.74,26.04,4.3,8.43,1.52,12.1,5.39,12.38,13.91.35,10.72.38,21.47.05,32.19-.26,8.5-3.67,12.05-12.09,13.64-8.64,1.63-17.31,3.13-25.99,4.58-4.09.68-6.67,3.02-8.2,6.7-3.53,8.51-7,17.04-10.55,25.54-1.74,4.17-1.36,7.97,1.32,11.66,4.84,6.68,9.62,13.4,14.31,20.19,5.5,7.97,5.22,12.87-1.44,19.81-6.95,7.24-14,14.41-21.35,21.24-2.66,2.5-6.32,3.92-9.71,5.92h0ZM296.77,183.31c-.14-63.08-51.04-114.03-113.94-114.03s-114,51.26-114.06,113.66c-.05,63.37,51.07,114.39,114.51,114.27,62.75-.11,113.63-51.18,113.49-113.9Z"/>
  </g>
</svg>