<?xml version="1.0" encoding="UTF-8"?>
<svg id="Layer_1" data-name="Layer 1" xmlns="http://www.w3.org/2000/svg" viewBox="0 0 680.5 364.81">
  <defs>
    <style>
      .cls-1 {
        fill: #020202;
        font-family: ArialMT, Arial;
        font-size: 41px;
        isolation: isolate;
      }

      .cls-2 {
        fill: #fff;
      }

      .cls-3 {
        fill: #010101;
      }
    </style>
  </defs>
  <text id="text1399" class="cls-1" transform="translate(393.46 250.14)"><tspan x="0" y="0">ENGINEERING</tspan></text>
  <g id="g1503">
    <polygon id="polygon1493" class="cls-3" points="393.32 139.06 393.32 153.81 409.25 153.81 409.25 203.98 428.03 203.98 428.03 153.57 443.25 153.33 443.25 139.06 393.32 139.06"/>
    <path id="path1495" class="cls-3" d="M494.85,139.06s-11.18-2.85-26.63-1.66-16.65,13.79-16.65,13.79v37.81s-.71,15.74,16.17,15.98c16.88.24,27.11-1,27.11-1v-13.32l-19.26-.24s-5.23-.24-5.23-3.57-.24-9.27-.24-9.27l24.73-.48v-12.6l-25.21-.24-.24-8.32s0-3.57,6.9-3.57,18.55.71,18.55.71v-14.02Z"/>
    <path id="path1497" class="cls-3" d="M552.16,154.04v-13.32s-27.35-8.32-38.76,0-7.61,20.45-7.61,20.45c0,0,1.9,9.75,19.5,16.88,17.77,7.13,7.29,12.6,4.99,11.89l-22.59-1.43v13.32s23.07,8.32,39.71-2.14c13.29-10.89,6.09-26.52,1.43-29.1-4.99-2.76-22.59-11.56-22.59-11.56,0,0-5.95-5.71,4.04-6.42,9.99-.71,21.88,1.43,21.88,1.43Z"/>
    <path id="path1499" class="cls-3" d="M566.11,139.06v54.06s4.44,11.35,16.8,11.86,22.83-1,22.83-1v-14.03h-14.9s-6.02,1.03-6.18-3.49,0-47.4,0-47.4h-18.55Z"/>
    <path id="path1501" class="cls-3" d="M659.4,149.52c-2.62-16.17-35.19-16.65-37.1,0l-12.84,54.56h19.74l2.61-14.61,17.37-.23,3.56,14.85h18.79l-12.13-54.57ZM634.91,175.37l5.58-23.15,6.15,23.15h-11.73Z"/>
  </g>
  <g id="Layer_1-2" data-name="Layer 1">
    <path id="path1397" class="cls-3" d="M291.04,327.89c-3.75-1.81-7.01-2.95-9.8-4.8-6.65-4.39-13.14-9.04-19.58-13.74-4.06-2.96-8.21-3.45-12.8-1.49-8.22,3.51-16.46,6.97-24.71,10.38-4.18,1.73-6.55,4.71-7.3,9.2-1.43,8.54-2.96,17.06-4.56,25.56-1.44,7.69-5.4,11.41-13.21,11.6-11,.27-22.02.3-33.02-.03-8.2-.25-11.9-3.85-13.36-11.87-1.5-8.25-2.95-16.5-4.34-24.77-.8-4.74-3.23-8.01-7.74-9.85-8.02-3.27-15.98-6.69-23.98-10-3.99-1.65-7.74-1.22-11.31,1.32-6.49,4.63-13.09,9.12-19.6,13.73-9.12,6.45-13.76,6.21-21.73-1.54-6.61-6.42-13.13-12.94-19.58-19.52-7.43-7.58-7.78-12.36-1.73-21.07,4.55-6.55,9.08-13.11,13.76-19.58,2.7-3.74,2.91-7.62,1.22-11.7-3.48-8.37-7.01-16.72-10.57-25.06-1.62-3.81-4.43-6.12-8.61-6.86-8.79-1.55-17.59-3.08-26.33-4.9-8.36-1.74-11.69-5.45-11.93-13.86-.31-10.72-.28-21.47-.04-32.19.18-7.92,3.63-11.88,11.39-13.41,8.36-1.64,16.78-3.08,25.22-4.23,5.27-.72,8.3-3.31,10.11-8.27,2.91-7.99,6.1-15.9,9.57-23.66,2.13-4.76,2.13-8.65-1.25-12.95-5.18-6.58-9.93-13.52-14.62-20.47-5.26-7.78-4.94-12.44,1.48-19.14,7.04-7.35,14.25-14.55,21.59-21.59,6.64-6.37,11.17-6.74,18.74-1.56,7.37,5.05,14.57,10.36,21.73,15.71,3.12,2.33,6.1,2.56,9.61,1.03,8.81-3.86,17.65-7.66,26.59-11.22,4.05-1.61,6.03-4.21,6.64-8.5,1.2-8.43,2.65-16.83,4.2-25.21,1.71-9.26,5.2-12.72,14.62-13.1,10.71-.44,21.46-.31,32.17.04,7.86.26,11.5,3.51,13.07,11.25,1.71,8.48,3.14,17.04,4.33,25.61.69,4.95,3,7.76,7.74,9.49,8.77,3.2,17.39,6.82,25.96,10.54,4.24,1.84,7.78,1.59,11.52-1.22,6.71-5.03,13.57-9.86,20.52-14.57,7.92-5.36,13.15-4.89,19.86,1.71,6.77,6.65,13.51,13.33,20.02,20.23,7.79,8.26,8.03,12.05,1.67,21.4-4.41,6.48-8.86,12.95-13.66,19.13-3.1,3.99-3.39,7.63-1.34,12.18,3.84,8.51,7.35,17.18,10.73,25.89,1.48,3.8,3.95,5.65,7.87,6.25,8.7,1.33,17.39,2.74,26.04,4.3,8.43,1.52,12.1,5.39,12.38,13.91.35,10.72.38,21.47.05,32.19-.26,8.5-3.67,12.05-12.09,13.64-8.64,1.63-17.31,3.13-25.99,4.58-4.09.68-6.67,3.02-8.2,6.7-3.53,8.51-7,17.04-10.55,25.54-1.74,4.17-1.36,7.97,1.32,11.66,4.84,6.68,9.62,13.4,14.31,20.19,5.5,7.97,5.22,12.87-1.44,19.81-6.95,7.24-14,14.41-21.35,21.24-2.66,2.5-6.32,3.92-9.71,5.92ZM296.77,183.31c-.14-63.08-51.04-114.03-113.94-114.03-62.55,0-114,51.26-114.06,113.66-.05,63.37,51.07,114.39,114.51,114.27,62.75-.11,113.63-51.18,113.49-113.9Z"/>
    <g>
      <path id="path1403" class="cls-3" d="M234.12,230.61c-1.84-.13-3.37.77-5.01,1.39-2.3.87-4.55,1.93-6.75,2.96-4.68,2.2-9.63,3.75-14.24,6.09-.23.11-.38.37-.63.62-.79-.53-1.65-1.28-2.45.1-3.73-2.97-8.18-4.95-11.49-8.6v3.63c1.57.81,3.42,1.57,5.05,2.65,1.58,1.05,2.94,2.42,4.18,3.48-.29,3.1-.56,6.02-.84,9.08-6.38,2.86-12.89,5.78-19.83,8.89h-6.65c-3.7-2.63-7.42-5.22-11.08-7.89-5-3.65-10.18-7.05-15.06-10.89-5.31-4.18-11.2-7.61-16.7-11.55-1.5-1.08-.08-.08-1.46-1.07l.2-22.25c2.71,1.58,5.17,2.98,7.6,4.45,4.15,2.51,8.21,5.17,12.42,7.57,4.54,2.58,8.79,5.63,13.34,8.2,3.25,1.83,6.34,3.96,9.52,5.9,1.75,1.07,3.33,1.54,5.59.56,3.93-1.71,8.18-2.71,12.39-4.04.19.16,21.41-8.74,30.94-12.43,3.77,4.12,7.37,8.03,10.93,11.99.2.21.03.76.03,1.16h0ZM186.98,237.08c-1.73-.3-2.68.09-3.16,1.67-.86,2.83-1.06,5.82-.35,10.42,1.19-.42,2.33-.83,3.51-1.25v-10.84ZM138.5,214.7v9.8c1.06,1.08,1.73,1.76,2.18,2.23v-8.2c-.91-1.61-1.36-2.39-2.18-3.83ZM150.47,222.98v9.61l.6-.72c.48.85.97,1.7,1.58,2.78v-8.7c-.83-1.13-1.35-1.85-2.18-2.97h0ZM166.97,243.99v-9.94c-.76-.34-1.39-.62-2.15-.95v9.28c.57.43,1.06.8,2.15,1.61h0Z"/>
      <path id="path1405" class="cls-3" d="M233.86,115.99c1.08,1.08,2.21,2.2,3.68,3.68.24,2.55.52,5.48.82,8.68-4.25.56-8.08,1.99-12.1,2.8-2.99.6-6.07,1.1-9.04,2.12-2.9,1-5.97,1.64-8.98,2.34-2.67.63-5.36,1.3-8.07,1.66-1.4.19-2.71.54-4.04.89-3.12.81-6.25,1.57-9.37,2.4-3.44.92-6.88,1.84-9.7,1.62-4.04-1.81-7.34-3.5-10.79-4.76-2.55-.93-4.91-2.26-7.46-3.16-6.26-2.22-12.19-5.22-18.31-7.74-2.56-1.05-5.17-2.37-8.04-2.75-.42-.06-.78-.67-1.26-1.13,0-1.36.12-2.82-.03-4.24-.28-2.69.75-4.75,2.72-6.45.3-.26.57-.56.85-.84,1.75-.22,3.49.13,5.28-.75,1.52-.75,3.6.54,5.23-.85.31-.26,1.04-.09,1.56-.03,1.71.22,3.25-.35,4.86-.77,1.58-.41,3.19-.04,4.9-.68,1.92-.72,4.23-.34,6.41-.85,2.98-.69,6.34-.06,9.15-1.06,2.87-1.02,5.86.16,8.61-1.34,1.02-.56,2.61-.14,3.94-.08,3.95.16,8.05-.78,11.69,1.59,2.79-.53,5.13,1.13,7.69,1.69,2.5.54,4.96,1.77,7.42,2.13,2.53.37,4.79,1.43,7.26,1.91,2.34.46,4.75,1.35,7.07,2.04,2.56.77,5.27,1.55,8.05,1.93ZM225.02,117.8c-3.66-.77-6.77-1.22-9.74-2.12-2.3-.7-4.75-.86-6.92-1.58-3.07-1.02-6.18-1.77-9.29-2.54-3.14-.77-6.12-2.18-9.42-2.3-.72-.03-1.83-.76-2.07-.51-1.02,1.06-2.2.64-3.33.73-2.29.19-4.69-.56-6.84.8-4.24-.08-8.34.89-12.5,1.54-3.88.61-7.81.85-11.7,1.57-3.54.65-7.2.61-10.81.89-.24.02-.46.16-.91.32.39.39.67.92,1.05,1.02,3.84.98,7.35,2.79,11.03,4.14,6.69,2.46,13.36,4.93,19.93,7.67,1.73.72,3.59,1.7,5.47,1.13,3.6-1.09,7.38-1.33,10.97-2.38,2.65-.78,5.44-1.02,8-1.86,2.87-.93,5.83-1.44,8.71-1.94,3.22-.56,6.33-1.59,9.6-2.01,2.4-.31,4.78-1.33,6.99-1.84.48-.2.95-.39,1.78-.73Z"/>
      <path id="path1407" class="cls-3" d="M205.31,245.47c-.18-.39-.44-.67-.9-1.17,8.18-3.6,16.25-7.14,24.43-10.74,2.79,1.45,5.51,2.86,8.33,4.33v2.72c1.13.75,2.17,1.44,3.25,2.16v2.92c-2.2-.35-3.3,1.53-4.97,2.32-5.09,2.41-10.19,4.83-15.24,7.33-1.22.6-2.3,1.51-3.63,2.41-1.42-.48-3.21-.56-4.59-1.81-1.31-1.18-3.32-1.27-4.39-2.81-.99-1.42-2.9-1.9-3.6-3.59.4-1.43,2-3.67,1.31-4.07h0Z"/>
      <path id="path1409" class="cls-3" d="M196.77,177.4v-15.95c1.01-1.78,3.31-1.12,5.01-1.63,4.97-1.51,10.1-2.52,15.12-3.95,2.97-.84,6.09-1.13,8.95-2.49.86-.41,2.08-.06,3.32-.06v13.31c-1.44,2.14-4.29,1.72-6.56,2.57-2.77,1.04-5.69,1.69-8.56,2.44-3.25.84-6.69,1.21-9.72,2.53-2.45,1.04-5.28.38-7.56,3.23Z"/>
      <path id="path1411" class="cls-3" d="M229.23,195.4v13.54c-10.65,3.74-21.4,7.52-32.42,11.39-.49-4.73,0-9.42-.26-14.05,3.75-1.21,7.35-2.46,11-3.54,3.54-1.05,6.86-2.65,10.46-3.55,3.69-.93,7.22-2.41,11.22-3.79Z"/>
      <path id="path1413" class="cls-3" d="M229.32,175.58v11.75c-5.41,1.91-10.82,3.91-16.29,5.73-5.34,1.77-10.74,3.36-16.12,5.02-.16-.6-.28-.84-.28-1.08-.01-4.1-.01-8.2-.01-12.68,2.26-.77,4.56-1.63,6.92-2.31,1.56-.45,3.22-.53,4.78-.98,2.24-.65,4.38-1.8,6.65-2.14,2.03-.3,3.78-1.4,5.71-1.61,2.04-.22,3.93-.6,5.78-1.5.72-.34,1.73-.14,2.86-.2Z"/>
      <path id="path1415" class="cls-3" d="M229.23,133.11v11.5c-2.14.74-4.41,1.78-6.79,2.27-4.63.96-9.25,1.99-13.75,3.34-3.66,1.1-7.4,1.91-11.04,3.08-.22.07-.5-.06-.89-.11v-12.45c10.69-2.24,21.41-5.2,32.47-7.63Z"/>
      <path id="path1417" class="cls-3" d="M168.69,162.71c1.03.25,1.77.33,2.42.62,1.57.69,3.21,1.31,4.6,2.27,1.04.72,2.15.67,2.96.36,4.15-1.59,8.63-2.04,12.73-3.79.76-.32,1.77-.05,2.73-.05v14.66c-4.95,1.5-9.9,3-15,4.55-3.35-2.22-7.55-3.06-10.45-6.02,0-4.1,0-8.07,0-12.6Z"/>
      <path id="path1419" class="cls-3" d="M194.08,221.25c-5.73,1.4-10.91,4.45-16.47,5.48-3.23-2.1-6.16-4.01-9.12-5.94.23-1.66.55-3.08.58-4.5.03-1.39-.35-2.79-.36-4.19-.01-1.37.22-2.75.4-4.63.01,0,.46-.42,1.05-.96,3.08,2.33,6.48,4.05,10.14,5.54,1.23-.62,2.57-1.31,4.26-1.48,1.64-.17,3.18-1.21,4.78-1.8,1.48-.54,2.99-1,4.72-1.58.02,4.75.02,9.08.02,14.06Z"/>
      <path id="path1421" class="cls-3" d="M178.5,189.17c5.11-1.42,10.11-3.33,15.59-4.12v14.06c-2.76,1.01-5.64,2.08-8.54,3.1-1.4.49-2.8.99-4.25,1.27-1.61.31-2.83-.64-4.18-1.43-2.32-1.36-4.87-2.34-7.36-3.5-.21-.5-.45-1.05-.81-1.92.08-.11.32-.46.59-.87-1.68-2.83-.59-5.71-.27-8.78-.15-.28-.43-.81-.9-1.7.99-.05,1.72-.3,2.21-.06,2.43,1.2,4.79,2.55,7.19,3.82.19.11.48.09.73.13Z"/>
      <path id="path1423" class="cls-3" d="M169.71,141.87c2.49,1.06,4.74,1.8,6.74,2.96,1.06.62,2.56.8,2.89.42,1.2-1.41,2.97-.22,4.32-1.4.97-.85,2.87-.62,4.35-.92,1.47-.29,2.93-.62,4.38-.97.22-.05.38-.36.83-.8.37.88.94,1.62.97,2.38.1,3.43.04,6.86.04,10.43-3.05.85-6.01,1.71-8.99,2.5-1.44.39-3.04.41-4.34,1.06-1.84.93-3.37.55-5.04-.24-2.33-1.1-4.71-2.11-6.72-3-.18-1.61-.38-2.81-.44-4.02-.07-1.46-.14-2.93.02-4.37.15-1.29.62-2.55.99-4.03Z"/>
      <path id="path1425" class="cls-3" d="M166.27,204.64v14.82c-3.61-2.11-7.28-3.83-10.43-6.21-3.32-2.51-7.68-3.46-10.3-7.04v-11.45c.85.15,1.75.09,2.42.46,2.5,1.36,5.04,2.69,7.52,4.03,3.44,1.85,6.95,3.7,10.79,5.39Z"/>
      <path id="path1427" class="cls-3" d="M166.15,174.83c-6.81-4-14.54-5.85-20.58-10.55v-12.65c6.9,3.13,13.63,6.17,20.58,9.32v13.88Z"/>
      <path id="path1429" class="cls-3" d="M145.55,184.94v-10.52c1.73-1.29,3.26-.09,4.56.66,3.53,2.05,7.29,3.57,10.94,5.35,1.89.92,3.61,2.21,5.24,3.23,0,2.25-.04,4.11.01,5.96.04,1.78-.42,3.64.93,5.26-.39.44-.72.82-.93,1.06-.24.21-.4.38-.42.36-.2-.17-.35-.43-.58-.54-6.7-3.44-13.34-7.01-19.75-10.82Z"/>
      <path id="path1431" class="cls-3" d="M166.19,140.69v11.91c-.86-.17-1.62-.18-2.25-.48-3.12-1.45-6.2-2.99-9.31-4.48-1.66-.79-3.38-1.47-5.02-2.32-1.44-.75-2.8-1.66-4.06-2.42v-10.02c1.06-.43,2.07-.43,3.21.1,4.9,2.28,9.83,4.5,14.96,6.24.93.32,1.72,1.02,2.47,1.47Z"/>
      <path id="path1433" class="cls-3" d="M131.32,145.18c3.97,1.81,7.73,3.53,11.7,5.35v12.57c-4.32-1.05-7.64-3.8-11.7-4.93v-12.99Z"/>
      <path id="path1435" class="cls-3" d="M131.29,186.5c4.46,1.3,7.7,4.33,11.73,5.76v13.09c-4.06-2.34-7.85-4.53-11.73-6.77v-12.08Z"/>
      <path id="path1437" class="cls-3" d="M143.02,171.95v11.99c-4.06-2.13-7.83-4.1-11.72-6.14v-10.9c.72.12,1.59.09,2.29.42,3.11,1.45,6.17,3.01,9.43,4.63Z"/>
      <path id="path1439" class="cls-3" d="M131.27,136.59v-10.53c4.16.8,7.45,3.58,11.87,4.27v11.99c-4.36-1.66-8.07-3.96-11.87-5.73Z"/>
      <path id="path1441" class="cls-3" d="M237.13,214.81v14.56c-4.81-2.84-6.86-7.88-11.12-11.07.71-.48,1.26-1.17,1.83-1.19,2.08-.04,3.93-.84,5.68-1.72,1.24-.61,2.32-.89,3.61-.58Z"/>
      <path id="path1443" class="cls-3" d="M231.79,166.35v-14.44c1.68-.39,3.37-.79,4.93-1.16.27.26.39.33.46.44.07.1.13.22.13.34.01,4.47.01,8.95.01,13.53-1.75.4-3.44.8-5.53,1.29Z"/>
      <path id="path1445" class="cls-3" d="M237.23,192.74v12.84c-1.5,1.58-3.17,2.29-5.38,1.76v-12.61c1.51-.56,3.24-1.2,5.38-1.99Z"/>
      <path id="path1447" class="cls-3" d="M232.83,186.69l-.97-.97v-11.53c1.62-.35,3.4-.73,5.36-1.16v11.28c-1.38.75-2.88,1.56-4.39,2.38Z"/>
      <path id="path1449" class="cls-3" d="M231.73,132.82c1.64-.61,3.03-1.11,4.52-1.66.21.2.58.55,1,.95v10.91c-.77.23-1.58.49-2.39.72-.67.19-1.35.35-2.41.63-.2-.61-.66-1.41-.68-2.23-.1-3.04-.04-6.08-.04-9.32Z"/>
      <path id="path1451" class="cls-3" d="M236.86,229.75l1.3,1.3c-.41,1.62.83,3.66-1.11,5-1.72-.93-3.42-1.85-5.33-2.89-.55-1.78,1.95-1.28,2.5-2.52.23-.51,1.54-.54,2.64-.89Z"/>
      <path id="path1469" class="cls-2" d="M201.4,236.18l.8.8c-.26-.26-.53-.53-.8-.8Z"/>
      <path id="path1485" class="cls-2" d="M214.17,254.51l-.8-.8c.27.27.54.54.8.8Z"/>
    </g>
  </g>
</svg>